<svg xmlns="http://www.w3.org/2000/svg" viewBox="0 0 1280 640" width="1280" height="640">
  <defs>
    <linearGradient id="bg" x1="0" y1="0" x2="1" y2="1">
      <stop offset="0" stop-color="#818cf8"/>
      <stop offset="1" stop-color="#4338ca"/>
    </linearGradient>
  </defs>
  <rect width="1280" height="640" fill="#0f1117"/>
  <rect x="0" y="628" width="1280" height="12" fill="url(#bg)"/>
  <!-- icon (same shapes as icon.svg), scaled to 320px -->
  <g transform="translate(120 160) scale(0.625)">
    <rect width="512" height="512" rx="112" fill="url(#bg)"/>
    <rect x="80" y="144" width="304" height="216" rx="28" fill="#ffffff"/>
    <path d="M108 176 L232 268 L356 176" fill="none" stroke="#6366f1" stroke-width="22" stroke-linecap="round" stroke-linejoin="round"/>
    <circle cx="372" cy="356" r="92" fill="#0f1117" stroke="#ffffff" stroke-width="14"/>
    <path d="M342 346 V324 a30 30 0 0 1 60 0 V346" fill="none" stroke="#ffffff" stroke-width="14"/>
    <rect x="324" y="342" width="96" height="72" rx="14" fill="#ffffff"/>
    <circle cx="372" cy="370" r="10" fill="#0f1117"/>
    <rect x="367" y="372" width="10" height="22" rx="4" fill="#0f1117"/>
  </g>
  <g font-family="Segoe UI, Roboto, Helvetica, Arial, sans-serif">
    <text x="520" y="300" font-size="104" font-weight="700" fill="#e4e4e7">age-mail</text>
    <text x="524" y="370" font-size="34" fill="#9ca3af">End-to-end encrypted mail from the browser.</text>
    <text x="524" y="420" font-size="34" fill="#9ca3af">The server only ever sees ciphertext.</text>
  </g>
</svg>
